<svg width="37" height="37" viewBox="0 0 37 37" fill="none" xmlns="http://www.w3.org/2000/svg">
<path d="M26.5794 17.6665C30.5152 15.6492 34.0649 11.0444 31.6923 6.70864C29.5627 2.81711 22.5202 2.31626 20.23 6.05011C19.5478 7.16229 19.4706 8.62349 19.2321 9.8682C19.1287 10.4083 19.2043 11.1065 18.9586 10.2529C18.4292 8.41315 17.3689 6.69882 16.0155 5.23517C14.6028 3.70743 11.9368 1.28169 9.51577 1.83462C7.55181 2.28316 6.43402 4.67786 5.7784 6.22063C5.13583 7.73269 5.35623 9.31821 6.21192 10.7802C6.93198 12.0104 8.10008 12.9575 9.30763 13.7848C9.77111 14.1024 10.2519 14.42 10.7607 14.6736C10.9164 14.7512 11.4217 14.8925 11.2485 14.8651C9.26579 14.5513 7.2091 14.0512 5.25774 14.6745C3.52471 15.228 2.13408 16.964 1.52706 18.5041C0.423118 21.3049 1.6283 25.4918 5.13056 26.5497C7.89068 27.3835 10.6648 26.5572 12.6879 24.9077C12.8188 24.801 12.873 24.7073 12.786 24.8738C12.4289 25.5565 12.1011 26.251 11.8581 26.9795C11.3323 28.5559 11.2154 29.8985 12.1533 31.3919C14.0768 34.4548 17.4597 36.5703 21.4077 35.8402C23.1591 35.5163 23.798 34.0417 24.2977 32.6182C24.8797 30.9602 24.3721 29.6226 23.6927 28.0409C23.6152 27.8605 23.073 26.4927 23.1901 26.7539C23.7487 28.0009 24.6361 29.135 26.0857 29.6298C28.6439 30.503 32.3378 29.9523 34.4169 28.4676C35.4629 27.7206 35.624 25.8224 35.6183 24.6734C35.6088 22.7702 33.289 21.0162 31.5921 20.2245C30.0047 19.4838 28.216 19.2009 26.4983 18.8718" stroke="#F35C6E" stroke-width="2" stroke-linecap="round"/>
</svg>
