<svg width="269" height="324" viewBox="0 0 269 324" fill="none" xmlns="http://www.w3.org/2000/svg">
<mask id="path-1-outside-1_990_173" maskUnits="userSpaceOnUse" x="0.949219" y="0.365356" width="268" height="324" fill="black">
<rect fill="white" x="0.949219" y="0.365356" width="268" height="324"/>
<path fill-rule="evenodd" clip-rule="evenodd" d="M102.746 14.8689L89.9492 2.36536L77.1523 14.8689H13.9492C7.3218 14.8689 1.94922 20.2415 1.94922 26.8689V310.661C1.94922 317.289 7.3218 322.661 13.9492 322.661H255.949C262.577 322.661 267.949 317.289 267.949 310.661V26.8689C267.949 20.2414 262.577 14.8689 255.949 14.8689H102.746Z"/>
</mask>
<path fill-rule="evenodd" clip-rule="evenodd" d="M102.746 14.8689L89.9492 2.36536L77.1523 14.8689H13.9492C7.3218 14.8689 1.94922 20.2415 1.94922 26.8689V310.661C1.94922 317.289 7.3218 322.661 13.9492 322.661H255.949C262.577 322.661 267.949 317.289 267.949 310.661V26.8689C267.949 20.2414 262.577 14.8689 255.949 14.8689H102.746Z" fill="white"/>
<path d="M89.9492 2.36536L90.6481 1.6501L89.9492 0.967262L89.2504 1.6501L89.9492 2.36536ZM102.746 14.8689L102.047 15.5841L102.339 15.8689H102.746V14.8689ZM77.1523 14.8689V15.8689H77.5598L77.8512 15.5841L77.1523 14.8689ZM89.2504 3.08062L102.047 15.5841L103.445 14.1536L90.6481 1.6501L89.2504 3.08062ZM77.8512 15.5841L90.6481 3.08062L89.2504 1.6501L76.4535 14.1536L77.8512 15.5841ZM13.9492 15.8689H77.1523V13.8689H13.9492V15.8689ZM2.94922 26.8689C2.94922 20.7937 7.87409 15.8689 13.9492 15.8689V13.8689C6.76951 13.8689 0.949219 19.6892 0.949219 26.8689H2.94922ZM2.94922 310.661V26.8689H0.949219V310.661H2.94922ZM13.9492 321.661C7.87409 321.661 2.94922 316.736 2.94922 310.661H0.949219C0.949219 317.841 6.76952 323.661 13.9492 323.661V321.661ZM255.949 321.661H13.9492V323.661H255.949V321.661ZM266.949 310.661C266.949 316.736 262.024 321.661 255.949 321.661V323.661C263.129 323.661 268.949 317.841 268.949 310.661H266.949ZM266.949 26.8689V310.661H268.949V26.8689H266.949ZM255.949 15.8689C262.024 15.8689 266.949 20.7937 266.949 26.8689H268.949C268.949 19.6891 263.129 13.8689 255.949 13.8689V15.8689ZM102.746 15.8689H255.949V13.8689H102.746V15.8689Z" fill="#FFC7D2" mask="url(#path-1-outside-1_990_173)"/>
</svg>
