<svg width="25" height="25" viewBox="0 0 25 25" fill="none" xmlns="http://www.w3.org/2000/svg">
<g clip-path="url(#clip0_2091_3502)">
<path d="M21.5327 5.56024H19.3912V3.43392C19.3912 2.8655 18.9247 2.40234 18.3522 2.40234H18.3204C17.7373 2.40234 17.2708 2.8655 17.2708 3.43392V5.56024H15.1399C14.5674 5.56024 14.1009 6.0234 14.0903 6.59182V6.6234C14.0903 7.20234 14.5568 7.6655 15.1399 7.6655H17.2708V9.78129C17.2708 10.3497 17.7373 10.8234 18.3204 10.8129H18.3522C18.9247 10.8129 19.3912 10.3497 19.3912 9.78129V7.6655H21.5327C22.1052 7.6655 22.5717 7.20234 22.5717 6.63392V6.59182C22.5717 6.0234 22.1052 5.56024 21.5327 5.56024ZM16.2107 9.78129V8.71813H15.1399C14.578 8.71813 14.0479 8.49708 13.645 8.10761C13.2528 7.70761 13.0302 7.18129 13.0302 6.59182C13.0302 6.21287 13.1362 5.8655 13.3164 5.56024H4.5488C3.38262 5.56024 2.42847 6.50761 2.42847 7.6655V20.2971C2.42847 21.455 3.38262 22.4023 4.5488 22.4023H17.2708C18.437 22.4023 19.3912 21.455 19.3912 20.2971V11.5813C19.0731 11.7602 18.7127 11.876 18.3098 11.876C17.1542 11.8655 16.2107 10.9287 16.2107 9.78129ZM16.1683 20.2971H5.60897C5.1743 20.2971 4.91986 19.8023 5.1849 19.455L7.28404 16.6866C7.50667 16.3918 7.94134 16.4129 8.15338 16.7076L9.84965 19.2444L12.6167 15.5813C12.8287 15.3076 13.2422 15.2971 13.4542 15.5708L16.5817 19.4445C16.8574 19.7918 16.6135 20.2971 16.1683 20.2971Z" fill="#7E7E7E"/>
</g>
<defs>
<clipPath id="clip0_2091_3502">
<rect width="24" height="23.8294" fill="white" transform="translate(0.5 0.487793)"/>
</clipPath>
</defs>
</svg>
