<svg width="33" height="33" viewBox="0 0 33 33" fill="none" xmlns="http://www.w3.org/2000/svg">
<path d="M27 24.4053V8.07198C27 6.78865 25.95 5.73865 24.6667 5.73865H8.33333C7.05 5.73865 6 6.78865 6 8.07198V24.4053C6 25.6886 7.05 26.7386 8.33333 26.7386H24.6667C25.95 26.7386 27 25.6886 27 24.4053ZM12.8833 18.5486L15.3333 21.5003L18.95 16.8453C19.1833 16.542 19.65 16.542 19.8833 16.857L23.9783 22.317C24.27 22.702 23.99 23.2503 23.5117 23.2503H9.52333C9.03333 23.2503 8.765 22.6903 9.06833 22.3053L11.9733 18.572C12.195 18.2686 12.6383 18.257 12.8833 18.5486Z" fill="#A0A0A0"/>
</svg>
