<svg width="25" height="24" viewBox="0 0 25 24" fill="none" xmlns="http://www.w3.org/2000/svg">
<g clip-path="url(#clip0_2245_8453)">
<path d="M20.6519 4.88586H18.7382V2.98579C18.7382 2.47784 18.3214 2.06396 17.8098 2.06396H17.7814C17.2603 2.06396 16.8435 2.47784 16.8435 2.98579V4.88586H14.9393C14.4277 4.88586 14.0108 5.29974 14.0014 5.80769V5.8359C14.0014 6.35325 14.4182 6.76713 14.9393 6.76713H16.8435V8.6578C16.8435 9.16575 17.2603 9.58903 17.7814 9.57963H17.8098C18.3214 9.57963 18.7382 9.16575 18.7382 8.6578V6.76713H20.6519C21.1635 6.76713 21.5803 6.35325 21.5803 5.84531V5.80769C21.5803 5.29974 21.1635 4.88586 20.6519 4.88586ZM15.8961 8.6578V7.70777H14.9393C14.4372 7.70777 13.9635 7.51023 13.6035 7.1622C13.253 6.80476 13.054 6.33444 13.054 5.80769C13.054 5.46906 13.1487 5.15865 13.3098 4.88586H5.47506C4.43295 4.88586 3.58032 5.73244 3.58032 6.76713V18.0547C3.58032 19.0894 4.43295 19.936 5.47506 19.936H16.8435C17.8856 19.936 18.7382 19.0894 18.7382 18.0547V10.2663C18.454 10.4262 18.1319 10.5297 17.7719 10.5297C16.7393 10.5203 15.8961 9.6831 15.8961 8.6578ZM15.8582 18.0547H6.42243C6.03401 18.0547 5.80664 17.6126 6.04348 17.3022L7.91927 14.8284C8.11822 14.565 8.50664 14.5838 8.69611 14.8472L10.2119 17.1141L12.6845 13.8407C12.874 13.5961 13.2435 13.5867 13.433 13.8313L16.2277 17.2928C16.474 17.6032 16.2561 18.0547 15.8582 18.0547Z" fill="#282828"/>
</g>
<defs>
<clipPath id="clip0_2245_8453">
<rect width="24" height="23.8294" fill="white" transform="translate(0.580322 0.0854492)"/>
</clipPath>
</defs>
</svg>
