<svg width="32" height="32" viewBox="0 0 32 32" fill="none" xmlns="http://www.w3.org/2000/svg">
<g clip-path="url(#clip0_1812_3263)">
<rect width="32" height="32" rx="16" fill="white"/>
<g clip-path="url(#clip1_1812_3263)">
<path d="M9.33333 18.5C8.875 18.5 8.5 18.875 8.5 19.3333V21.8333C8.5 22.75 9.25 23.5 10.1667 23.5H12.6667C13.125 23.5 13.5 23.125 13.5 22.6667C13.5 22.2083 13.125 21.8333 12.6667 21.8333H11C10.5417 21.8333 10.1667 21.4583 10.1667 21V19.3333C10.1667 18.875 9.79167 18.5 9.33333 18.5ZM10.1667 11C10.1667 10.5417 10.5417 10.1667 11 10.1667H12.6667C13.125 10.1667 13.5 9.79167 13.5 9.33333C13.5 8.875 13.125 8.5 12.6667 8.5H10.1667C9.25 8.5 8.5 9.25 8.5 10.1667V12.6667C8.5 13.125 8.875 13.5 9.33333 13.5C9.79167 13.5 10.1667 13.125 10.1667 12.6667V11ZM21.8333 8.5H19.3333C18.875 8.5 18.5 8.875 18.5 9.33333C18.5 9.79167 18.875 10.1667 19.3333 10.1667H21C21.4583 10.1667 21.8333 10.5417 21.8333 11V12.6667C21.8333 13.125 22.2083 13.5 22.6667 13.5C23.125 13.5 23.5 13.125 23.5 12.6667V10.1667C23.5 9.25 22.75 8.5 21.8333 8.5ZM21.8333 21C21.8333 21.4583 21.4583 21.8333 21 21.8333H19.3333C18.875 21.8333 18.5 22.2083 18.5 22.6667C18.5 23.125 18.875 23.5 19.3333 23.5H21.8333C22.75 23.5 23.5 22.75 23.5 21.8333V19.3333C23.5 18.875 23.125 18.5 22.6667 18.5C22.2083 18.5 21.8333 18.875 21.8333 19.3333V21ZM16 12.6667C14.1583 12.6667 12.6667 14.1583 12.6667 16C12.6667 17.8417 14.1583 19.3333 16 19.3333C17.8417 19.3333 19.3333 17.8417 19.3333 16C19.3333 14.1583 17.8417 12.6667 16 12.6667ZM16 17.6667C15.0833 17.6667 14.3333 16.9167 14.3333 16C14.3333 15.0833 15.0833 14.3333 16 14.3333C16.9167 14.3333 17.6667 15.0833 17.6667 16C17.6667 16.9167 16.9167 17.6667 16 17.6667Z" fill="#585858"/>
</g>
</g>
<rect x="0.5" y="0.5" width="31" height="31" rx="15.5" stroke="#7E7E7E"/>
<defs>
<clipPath id="clip0_1812_3263">
<rect width="32" height="32" rx="16" fill="white"/>
</clipPath>
<clipPath id="clip1_1812_3263">
<rect width="20" height="20" fill="white" transform="translate(6 6)"/>
</clipPath>
</defs>
</svg>
