<svg width="30" height="57" viewBox="0 0 30 57" fill="none" xmlns="http://www.w3.org/2000/svg">
<path d="M0 0H29.2769V56.4536L14.6384 45.1681L0 56.4536V0Z" fill="#00FF1A"/>
<path d="M7.23817 22.9478H6.04617V17.2358H9.31817V18.2278H7.23817V19.6998H9.17417V20.6918H7.23817V22.9478ZM12.1008 17.2358C12.6181 17.2358 13.0448 17.2998 13.3808 17.4278C13.7168 17.5504 13.9675 17.7398 14.1328 17.9958C14.2981 18.2464 14.3808 18.5638 14.3808 18.9478C14.3808 19.2091 14.3301 19.4384 14.2288 19.6358C14.1328 19.8278 14.0021 19.9931 13.8368 20.1318C13.6768 20.2651 13.5035 20.3744 13.3168 20.4598L14.9968 22.9478H13.6528L12.2928 20.7558H11.6448V22.9478H10.4368V17.2358H12.1008ZM12.0128 18.2278H11.6448V19.7718H12.0368C12.3035 19.7718 12.5195 19.7424 12.6848 19.6838C12.8501 19.6251 12.9701 19.5371 13.0448 19.4198C13.1195 19.2971 13.1568 19.1504 13.1568 18.9798C13.1568 18.7984 13.1141 18.6544 13.0288 18.5478C12.9488 18.4358 12.8235 18.3558 12.6528 18.3078C12.4875 18.2544 12.2741 18.2278 12.0128 18.2278ZM19.006 22.9478H15.718V17.2358H19.006V18.2278H16.926V19.4838H18.862V20.4758H16.926V21.9478H19.006V22.9478ZM23.4826 22.9478H20.1946V17.2358H23.4826V18.2278H21.4026V19.4838H23.3386V20.4758H21.4026V21.9478H23.4826V22.9478Z" fill="#FF2049"/>
</svg>
