<svg width="64" height="110" viewBox="0 0 64 110" fill="none" xmlns="http://www.w3.org/2000/svg">
<mask id="path-1-inside-1_1348_6914" fill="white">
<path fill-rule="evenodd" clip-rule="evenodd" d="M24.9325 4.17803L22.6011 0.891357L20.2696 4.17803H12.5938C5.96633 4.17803 0.59375 9.55061 0.59375 16.178V97.3557C0.59375 103.983 5.96633 109.356 12.5937 109.356H51.5938C58.2212 109.356 63.5938 103.983 63.5938 97.3557V16.178C63.5938 9.55062 58.2212 4.17803 51.5938 4.17803H24.9325Z"/>
</mask>
<path fill-rule="evenodd" clip-rule="evenodd" d="M24.9325 4.17803L22.6011 0.891357L20.2696 4.17803H12.5938C5.96633 4.17803 0.59375 9.55061 0.59375 16.178V97.3557C0.59375 103.983 5.96633 109.356 12.5937 109.356H51.5938C58.2212 109.356 63.5938 103.983 63.5938 97.3557V16.178C63.5938 9.55062 58.2212 4.17803 51.5938 4.17803H24.9325Z" fill="white"/>
<path d="M22.6011 0.891357L23.4167 0.312783L22.6011 -0.837028L21.7854 0.312783L22.6011 0.891357ZM24.9325 4.17803L24.1169 4.75661L24.4158 5.17803H24.9325V4.17803ZM20.2696 4.17803V5.17803H20.7863L21.0853 4.75661L20.2696 4.17803ZM21.7854 1.46993L24.1169 4.75661L25.7481 3.59946L23.4167 0.312783L21.7854 1.46993ZM21.0853 4.75661L23.4167 1.46993L21.7854 0.312783L19.454 3.59946L21.0853 4.75661ZM12.5938 5.17803H20.2696V3.17803H12.5938V5.17803ZM1.59375 16.178C1.59375 10.1029 6.51862 5.17803 12.5938 5.17803V3.17803C5.41405 3.17803 -0.40625 8.99832 -0.40625 16.178H1.59375ZM1.59375 97.3557V16.178H-0.40625V97.3557H1.59375ZM12.5937 108.356C6.51862 108.356 1.59375 103.431 1.59375 97.3557H-0.40625C-0.40625 104.535 5.41405 110.356 12.5937 110.356V108.356ZM51.5938 108.356H12.5937V110.356H51.5938V108.356ZM62.5938 97.3557C62.5938 103.431 57.6689 108.356 51.5938 108.356V110.356C58.7734 110.356 64.5938 104.535 64.5938 97.3557H62.5938ZM62.5938 16.178V97.3557H64.5938V16.178H62.5938ZM51.5938 5.17803C57.6689 5.17803 62.5938 10.1029 62.5938 16.178H64.5938C64.5938 8.99833 58.7735 3.17803 51.5938 3.17803V5.17803ZM24.9325 5.17803H51.5938V3.17803H24.9325V5.17803Z" fill="#C6C6C6" mask="url(#path-1-inside-1_1348_6914)"/>
<path d="M22.6011 0.891357L23.4167 0.312783L22.6011 -0.837028L21.7854 0.312783L22.6011 0.891357ZM24.9325 4.17803L24.1169 4.75661L24.4158 5.17803H24.9325V4.17803ZM20.2696 4.17803V5.17803H20.7863L21.0853 4.75661L20.2696 4.17803ZM21.7854 1.46993L24.1169 4.75661L25.7481 3.59946L23.4167 0.312783L21.7854 1.46993ZM21.0853 4.75661L23.4167 1.46993L21.7854 0.312783L19.454 3.59946L21.0853 4.75661ZM12.5938 5.17803H20.2696V3.17803H12.5938V5.17803ZM1.59375 16.178C1.59375 10.1029 6.51862 5.17803 12.5938 5.17803V3.17803C5.41405 3.17803 -0.40625 8.99832 -0.40625 16.178H1.59375ZM1.59375 97.3557V16.178H-0.40625V97.3557H1.59375ZM12.5937 108.356C6.51862 108.356 1.59375 103.431 1.59375 97.3557H-0.40625C-0.40625 104.535 5.41405 110.356 12.5937 110.356V108.356ZM51.5938 108.356H12.5937V110.356H51.5938V108.356ZM62.5938 97.3557C62.5938 103.431 57.6689 108.356 51.5938 108.356V110.356C58.7734 110.356 64.5938 104.535 64.5938 97.3557H62.5938ZM62.5938 16.178V97.3557H64.5938V16.178H62.5938ZM51.5938 5.17803C57.6689 5.17803 62.5938 10.1029 62.5938 16.178H64.5938C64.5938 8.99833 58.7735 3.17803 51.5938 3.17803V5.17803ZM24.9325 5.17803H51.5938V3.17803H24.9325V5.17803Z" fill="#FFC7D2" mask="url(#path-1-inside-1_1348_6914)"/>
<path d="M22.6011 0.891357L23.4167 0.312783L22.6011 -0.837028L21.7854 0.312783L22.6011 0.891357ZM24.9325 4.17803L24.1169 4.75661L24.4158 5.17803H24.9325V4.17803ZM20.2696 4.17803V5.17803H20.7863L21.0853 4.75661L20.2696 4.17803ZM21.7854 1.46993L24.1169 4.75661L25.7481 3.59946L23.4167 0.312783L21.7854 1.46993ZM21.0853 4.75661L23.4167 1.46993L21.7854 0.312783L19.454 3.59946L21.0853 4.75661ZM12.5938 5.17803H20.2696V3.17803H12.5938V5.17803ZM1.59375 16.178C1.59375 10.1029 6.51862 5.17803 12.5938 5.17803V3.17803C5.41405 3.17803 -0.40625 8.99832 -0.40625 16.178H1.59375ZM1.59375 97.3557V16.178H-0.40625V97.3557H1.59375ZM12.5937 108.356C6.51862 108.356 1.59375 103.431 1.59375 97.3557H-0.40625C-0.40625 104.535 5.41405 110.356 12.5937 110.356V108.356ZM51.5938 108.356H12.5937V110.356H51.5938V108.356ZM62.5938 97.3557C62.5938 103.431 57.6689 108.356 51.5938 108.356V110.356C58.7734 110.356 64.5938 104.535 64.5938 97.3557H62.5938ZM62.5938 16.178V97.3557H64.5938V16.178H62.5938ZM51.5938 5.17803C57.6689 5.17803 62.5938 10.1029 62.5938 16.178H64.5938C64.5938 8.99833 58.7735 3.17803 51.5938 3.17803V5.17803ZM24.9325 5.17803H51.5938V3.17803H24.9325V5.17803Z" fill="#FFC7D2" mask="url(#path-1-inside-1_1348_6914)"/>
</svg>
