<svg width="25" height="25" viewBox="0 0 25 25" fill="none" xmlns="http://www.w3.org/2000/svg">
<path opacity="0.87" d="M15.2441 9.07141H12.8441V10.2714H15.2441C16.2341 10.2714 17.0441 11.0814 17.0441 12.0714C17.0441 13.0614 16.2341 13.8714 15.2441 13.8714H12.8441V15.0714H15.2441C16.9001 15.0714 18.2441 13.7274 18.2441 12.0714C18.2441 10.4154 16.9001 9.07141 15.2441 9.07141ZM11.6441 13.8714H9.24414C8.25414 13.8714 7.44414 13.0614 7.44414 12.0714C7.44414 11.0814 8.25414 10.2714 9.24414 10.2714H11.6441V9.07141H9.24414C7.58814 9.07141 6.24414 10.4154 6.24414 12.0714C6.24414 13.7274 7.58814 15.0714 9.24414 15.0714H11.6441V13.8714ZM9.84414 11.4714H14.6441V12.6714H9.84414V11.4714Z" fill="#282828"/>
</svg>
