<svg xmlns="http://www.w3.org/2000/svg" width="25" height="25" viewBox="0 0 25 25" fill="none">
  <g clip-path="url(#clip0_958_3289)">
    <path
      d="M8.4021 11.5879H16.4021V13.5879H8.4021V11.5879ZM20.5021 12.5879H22.4021C22.4021 9.82789 20.1621 7.58789 17.4021 7.58789H13.4021V9.48789H17.4021C19.1121 9.48789 20.5021 10.8779 20.5021 12.5879ZM4.3021 12.5879C4.3021 10.8779 5.6921 9.48789 7.4021 9.48789H11.4021V7.58789H7.4021C4.6421 7.58789 2.4021 9.82789 2.4021 12.5879C2.4021 15.3479 4.6421 17.5879 7.4021 17.5879H11.4021V15.6879H7.4021C5.6921 15.6879 4.3021 14.2979 4.3021 12.5879ZM19.4021 12.5879H17.4021V15.5879H14.4021V17.5879H17.4021V20.5879H19.4021V17.5879H22.4021V15.5879H19.4021V12.5879Z"
      fill="#A0A0A0"
    />
  </g>
  <defs>
    <clipPath id="clip0_958_3289">
      <rect width="24" height="24" fill="white" transform="translate(0.4021 0.587891)" />
    </clipPath>
  </defs>
</svg>
