<svg width="15" height="13" viewBox="0 0 15 13" fill="none" xmlns="http://www.w3.org/2000/svg">
<path d="M9.47096 7.17881L13.056 7.17881L11.9493 8.28547C11.7543 8.48047 11.7543 8.80047 11.9493 8.99547C12.1443 9.19047 12.4593 9.19047 12.6543 8.99547L14.616 7.03381C14.811 6.83881 14.811 6.52381 14.616 6.32881L12.6593 4.36214C12.4643 4.16714 12.1493 4.16714 11.9543 4.36214C11.7593 4.55714 11.7593 4.87214 11.9543 5.06714L13.056 6.17881L9.47096 6.17881C9.19596 6.17881 8.97096 6.40381 8.97096 6.67881C8.97096 6.95381 9.19596 7.17881 9.47096 7.17881Z" fill="#C6C6C6"/>
<path fill-rule="evenodd" clip-rule="evenodd" d="M7.45882 6.1855V2.67883H8.79216V5.3455H10.1255V2.01217C10.1255 1.6455 9.82549 1.3455 9.45882 1.3455H7.45882C7.45882 0.978833 7.15882 0.678833 6.79216 0.678833H2.12549C1.75882 0.678833 1.45882 0.978833 1.45882 1.3455V11.3455H0.792155C0.425488 11.3455 0.125488 11.6455 0.125488 12.0122C0.125488 12.3788 0.425488 12.6788 0.792155 12.6788H6.29882H7.45882V11.3455V8.7655V6.1855ZM5.45882 6.01217C5.09215 6.01217 4.79216 6.31217 4.79216 6.67883C4.79216 7.0455 5.09215 7.3455 5.45882 7.3455C5.82549 7.3455 6.12549 7.0455 6.12549 6.67883C6.12549 6.31217 5.82549 6.01217 5.45882 6.01217Z" fill="#C6C6C6"/>
<path d="M7.45882 12.6788H10.1255V8.11822H8.79216V11.3455H7.45882V12.6788Z" fill="#C6C6C6"/>
</svg>
