<svg width="32" height="33" viewBox="0 0 32 33" fill="none" xmlns="http://www.w3.org/2000/svg">
<g id="Icon/Profile">
<rect id="Rectangle 27" y="0.734741" width="32" height="32" rx="16" fill="#A0A0A0"/>
<path id="Vector 3" d="M19.7178 16.0421C21.6759 15.0385 23.442 12.7475 22.2616 10.5904C21.2021 8.65427 17.6983 8.40509 16.5589 10.2628C16.2195 10.8161 16.1811 11.5431 16.0624 12.1623C16.011 12.431 16.0486 12.7784 15.9264 12.3537C15.6629 11.4384 15.1354 10.5855 14.4621 9.8573C13.7592 9.09722 12.4329 7.89037 11.2283 8.16546C10.2512 8.38862 9.6951 9.58003 9.36892 10.3476C9.04923 11.0999 9.15889 11.8887 9.58461 12.6161C9.94285 13.2281 10.524 13.6993 11.1248 14.1109C11.3554 14.2689 11.5946 14.4269 11.8477 14.5531C11.9252 14.5917 12.1766 14.662 12.0904 14.6484C11.104 14.4922 10.0807 14.2435 9.10989 14.5535C8.24767 14.8289 7.55581 15.6926 7.2538 16.4588C6.70457 17.8523 7.30417 19.9354 9.04661 20.4617C10.4198 20.8765 11.8 20.4654 12.8065 19.6448C12.8716 19.5917 12.8986 19.5451 12.8553 19.6279C12.6777 19.9676 12.5146 20.3131 12.3937 20.6755C12.1321 21.4598 12.074 22.1278 12.5406 22.8708C13.4975 24.3946 15.1806 25.4472 17.1448 25.0839C18.0162 24.9228 18.334 24.1891 18.5826 23.4809C18.8722 22.656 18.6197 21.9905 18.2817 21.2036C18.2431 21.1138 17.9733 20.4333 18.0316 20.5633C18.3095 21.1837 18.751 21.7479 19.4722 21.9941C20.7449 22.4285 22.5827 22.1546 23.6171 21.4159C24.1375 21.0443 24.2177 20.0999 24.2148 19.5282C24.2102 18.5813 23.056 17.7087 22.2118 17.3148C21.422 16.9463 20.5321 16.8055 19.6775 16.6418" stroke="white" stroke-width="2" stroke-linecap="round"/>
</g>
</svg>
