<svg width="18" height="12" viewBox="0 0 18 12" fill="none" xmlns="http://www.w3.org/2000/svg">
<path d="M16.417 9.65564L15.429 6.97764H11.841L10.853 9.65564H9.39697L12.92 0.334637H14.376L17.886 9.65564H16.417ZM15.039 5.75564L14.103 3.14264C14.0683 3.0473 14.0206 2.9043 13.96 2.71364C13.8993 2.52297 13.8386 2.32364 13.778 2.11564C13.7173 1.90764 13.6696 1.73864 13.635 1.60864C13.5656 1.8773 13.4876 2.1633 13.401 2.46664C13.3143 2.76997 13.245 2.9953 13.193 3.14264L12.257 5.75564H15.039Z" fill="#C6C6C6"/>
<path d="M8.86863 5.00164C8.86863 6.11097 8.65197 7.05997 8.21863 7.84864C7.79397 8.6373 7.15263 9.18764 6.29463 9.49964L8.51763 11.8656H6.59363L4.82563 9.77264C4.7823 9.77264 4.73463 9.77264 4.68263 9.77264C4.6393 9.7813 4.59597 9.78564 4.55263 9.78564C3.5733 9.78564 2.76297 9.5863 2.12163 9.18764C1.4803 8.78897 1.00363 8.22997 0.691633 7.51064C0.379633 6.7913 0.223633 5.95064 0.223633 4.98864C0.223633 4.0353 0.379633 3.2033 0.691633 2.49264C1.00363 1.7733 1.4803 1.21864 2.12163 0.828637C2.76297 0.42997 3.57763 0.230637 4.56563 0.230637C5.51897 0.230637 6.31197 0.42997 6.94463 0.828637C7.58597 1.21864 8.06697 1.7733 8.38763 2.49264C8.7083 3.2033 8.86863 4.03964 8.86863 5.00164ZM1.70563 5.00164C1.70563 6.11097 1.9353 6.9863 2.39463 7.62764C2.85397 8.26897 3.5733 8.58964 4.55263 8.58964C5.54063 8.58964 6.25997 8.26897 6.71063 7.62764C7.1613 6.9863 7.38663 6.11097 7.38663 5.00164C7.38663 3.8923 7.1613 3.0213 6.71063 2.38864C6.25997 1.75597 5.54497 1.43964 4.56563 1.43964C3.57763 1.43964 2.85397 1.75597 2.39463 2.38864C1.9353 3.0213 1.70563 3.8923 1.70563 5.00164Z" fill="#C6C6C6"/>
</svg>
