<svg width="32" height="32" viewBox="0 0 32 32" fill="none" xmlns="http://www.w3.org/2000/svg">
<path d="M6.95312 13.8049H7.38291C8.48748 13.8049 9.38291 14.7004 9.38291 15.8049V22.5323C9.38291 23.6369 8.48748 24.5323 7.38291 24.5323H6.95312V13.8049Z" fill="#F35C6E"/>
<path fill-rule="evenodd" clip-rule="evenodd" d="M17.1512 7.2253L18.4598 8.23535C18.8001 8.49802 18.9345 8.94881 18.7935 9.35493L17.4051 13.3542L23.0454 13.3542C24.3989 13.3542 25.3616 14.6705 24.9514 15.9603L23.893 19.2885L22.9757 22.7514C22.6272 24.067 21.4367 24.9832 20.0757 24.9832H12.6883C12.136 24.9832 11.6883 24.5355 11.6883 23.9832V13.3544V13.3543H11.6884L15.7141 7.45336C16.0384 6.9781 16.6958 6.87378 17.1512 7.2253Z" fill="#F35C6E"/>
</svg>
