<svg width="30" height="57" viewBox="0 0 30 57" fill="none" xmlns="http://www.w3.org/2000/svg">
<path d="M0 0H29.2769V56.4536L14.6384 45.1681L0 56.4536V0Z" fill="#FF2049"/>
<g clip-path="url(#clip0_1827_10102)">
<g clip-path="url(#clip1_1827_10102)">
<path d="M14.1386 26.5478C12.0786 26.5478 11.2686 25.6278 11.1586 24.4478H8.95862C9.07862 26.6378 10.7186 27.8678 12.6386 28.2778V30.4478H15.6386V28.2978C17.5886 27.9278 19.1386 26.7978 19.1386 24.7478C19.1386 21.9078 16.7086 20.9378 14.4386 20.3478C12.1686 19.7578 11.4386 19.1478 11.4386 18.1978C11.4386 17.1078 12.4486 16.3478 14.1386 16.3478C15.9186 16.3478 16.5786 17.1978 16.6386 18.4478H18.8486C18.7786 16.7278 17.7286 15.1478 15.6386 14.6378V12.4478H12.6386V14.6078C10.6986 15.0278 9.13862 16.2878 9.13862 18.2178C9.13862 20.5278 11.0486 21.6778 13.8386 22.3478C16.3386 22.9478 16.8386 23.8278 16.8386 24.7578C16.8386 25.4478 16.3486 26.5478 14.1386 26.5478Z" fill="#FFE600"/>
</g>
</g>
<defs>
<clipPath id="clip0_1827_10102">
<rect width="24" height="24" fill="white" transform="translate(2.63867 9.44775)"/>
</clipPath>
<clipPath id="clip1_1827_10102">
<rect width="24" height="24" fill="white" transform="translate(2.63867 9.44775)"/>
</clipPath>
</defs>
</svg>
