<svg width="26" height="26" viewBox="0 0 26 26" fill="none" xmlns="http://www.w3.org/2000/svg">
<g id="search" clip-path="url(#clip0_891_906)">
<path id="Vector" d="M16.4183 15.4487H15.5954L15.3037 15.1674C16.3245 13.9799 16.9391 12.4383 16.9391 10.7612C16.9391 7.02161 13.9079 3.99036 10.1683 3.99036C6.42871 3.99036 3.39746 7.02161 3.39746 10.7612C3.39746 14.5008 6.42871 17.532 10.1683 17.532C11.8454 17.532 13.387 16.9174 14.5745 15.8966L14.8558 16.1883V17.0112L20.0641 22.2091L21.6162 20.657L16.4183 15.4487ZM10.1683 15.4487C7.57454 15.4487 5.48079 13.3549 5.48079 10.7612C5.48079 8.16744 7.57454 6.07369 10.1683 6.07369C12.762 6.07369 14.8558 8.16744 14.8558 10.7612C14.8558 13.3549 12.762 15.4487 10.1683 15.4487Z" fill="#C6C6C6"/>
</g>
<defs>
<clipPath id="clip0_891_906">
<rect width="25" height="25" fill="white" transform="translate(0.272461 0.865356)"/>
</clipPath>
</defs>
</svg>
