<svg width="31" height="81" viewBox="0 0 31 81" fill="none" xmlns="http://www.w3.org/2000/svg">
<path d="M0.864502 0.638184H30.1414V57.0918L15.5029 45.8063L0.864502 57.0918V0.638184Z" fill="#FF2049"/>
<g clip-path="url(#clip0_1756_2263)">
<g clip-path="url(#clip1_1756_2263)">
<path d="M15.0031 27.1859C12.9431 27.1859 12.1331 26.2659 12.0231 25.0859H9.82312C9.94312 27.2759 11.5831 28.5059 13.5031 28.9159V31.0859H16.5031V28.9359C18.4531 28.5659 20.0031 27.4359 20.0031 25.3859C20.0031 22.5459 17.5731 21.5759 15.3031 20.9859C13.0331 20.3959 12.3031 19.7859 12.3031 18.8359C12.3031 17.7459 13.3131 16.9859 15.0031 16.9859C16.7831 16.9859 17.4431 17.8359 17.5031 19.0859H19.7131C19.6431 17.3659 18.5931 15.7859 16.5031 15.2759V13.0859H13.5031V15.2459C11.5631 15.6659 10.0031 16.9259 10.0031 18.8559C10.0031 21.1659 11.9131 22.3159 14.7031 22.9859C17.2031 23.5859 17.7031 24.4659 17.7031 25.3959C17.7031 26.0859 17.2131 27.1859 15.0031 27.1859Z" fill="#FFE600"/>
</g>
</g>
<defs>
<clipPath id="clip0_1756_2263">
<rect width="24" height="47" fill="white" transform="translate(3.50317 10.0859)"/>
</clipPath>
<clipPath id="clip1_1756_2263">
<rect width="24" height="24" fill="white" transform="translate(3.50317 10.0859)"/>
</clipPath>
</defs>
</svg>
