<svg width="30" height="57" viewBox="0 0 30 57" fill="none" xmlns="http://www.w3.org/2000/svg">
<path d="M0.38208 0.0258789H29.6589V56.4795L15.0205 45.194L0.38208 56.4795V0.0258789Z" fill="#00FF1A"/>
<path d="M7.62025 22.9736H6.42825V17.2616H9.70025V18.2536H7.62025V19.7256H9.55625V20.7176H7.62025V22.9736ZM12.4829 17.2616C13.2615 17.2616 13.8349 17.403 14.2029 17.6856C14.5762 17.9683 14.7629 18.3976 14.7629 18.9736C14.7629 19.235 14.7122 19.4643 14.6109 19.6616C14.5149 19.8536 14.3842 20.019 14.2189 20.1576C14.0589 20.291 13.8855 20.4003 13.6989 20.4856L15.3789 22.9736H14.0349L12.6749 20.7816H12.0269V22.9736H10.8189V17.2616H12.4829ZM12.3949 18.2536H12.0269V19.7976H12.4189C12.8189 19.7976 13.1042 19.731 13.2749 19.5976C13.4509 19.4643 13.5389 19.267 13.5389 19.0056C13.5389 18.7336 13.4455 18.5416 13.2589 18.4296C13.0722 18.3123 12.7842 18.2536 12.3949 18.2536ZM19.3881 22.9736H16.1001V17.2616H19.3881V18.2536H17.3081V19.5096H19.2441V20.5016H17.3081V21.9736H19.3881V22.9736ZM23.8647 22.9736H20.5767V17.2616H23.8647V18.2536H21.7847V19.5096H23.7207V20.5016H21.7847V21.9736H23.8647V22.9736Z" fill="#FF2049"/>
</svg>
