<svg width="24" height="25" viewBox="0 0 24 25" fill="none" xmlns="http://www.w3.org/2000/svg">
<g clip-path="url(#clip0_2197_31540)">
<path d="M20.0716 5.28821H18.1579V3.38813C18.1579 2.88019 17.7411 2.46631 17.2295 2.46631H17.2011C16.68 2.46631 16.2632 2.88019 16.2632 3.38813V5.28821H14.3589C13.8474 5.28821 13.4305 5.70209 13.4211 6.21003V6.23825C13.4211 6.7556 13.8379 7.16948 14.3589 7.16948H16.2632V9.06015C16.2632 9.56809 16.68 9.99138 17.2011 9.98197H17.2295C17.7411 9.98197 18.1579 9.56809 18.1579 9.06015V7.16948H20.0716C20.5832 7.16948 21 6.7556 21 6.24765V6.21003C21 5.70209 20.5832 5.28821 20.0716 5.28821ZM15.3158 9.06015V8.11011H14.3589C13.8568 8.11011 13.3832 7.91258 13.0232 7.56454C12.6726 7.2071 12.4737 6.73678 12.4737 6.21003C12.4737 5.8714 12.5684 5.56099 12.7295 5.28821H4.89474C3.85263 5.28821 3 6.13478 3 7.16948V18.4571C3 19.4918 3.85263 20.3383 4.89474 20.3383H16.2632C17.3053 20.3383 18.1579 19.4918 18.1579 18.4571V10.6686C17.8737 10.8285 17.5516 10.932 17.1916 10.932C16.1589 10.9226 15.3158 10.0854 15.3158 9.06015ZM15.2779 18.4571H5.84211C5.45368 18.4571 5.22632 18.015 5.46316 17.7046L7.33895 15.2307C7.53789 14.9673 7.92632 14.9861 8.11579 15.2495L9.63158 17.5164L12.1042 14.243C12.2937 13.9985 12.6632 13.9891 12.8526 14.2336L15.6474 17.6952C15.8937 18.0056 15.6758 18.4571 15.2779 18.4571Z" fill="white"/>
</g>
<defs>
<clipPath id="clip0_2197_31540">
<rect width="24" height="23.8294" fill="white" transform="translate(0 0.487793)"/>
</clipPath>
</defs>
</svg>
